# xmcd
#
# Track frame offsets: 
#        150
#        13726
#        26308
#        37348
#        50663
#        61589
#        72226
#        87827
#        97976
#        108967
#        122689
#        126441
#        130230
#        134146
#
# Disc length: 1842 seconds
#
# Revision: 0
# Processed by: cddbd v1.5.2PL0 Copyright (c) Steve Scherf et al.
# Submitted via: ExactAudioCopy v1.0b3
#
DISCID=c507300e
DTITLE=Rodney Dillard - Don't Wait For The Hearse To Take You To Churc
DTITLE=h
DYEAR=2011
DGENRE=Gospel
TTITLE0=Don't Wait For The Hearse To Take You To Church
TTITLE1=Leaning on the Everlasting Arms
TTITLE2=Gospel Ship
TTITLE3=Hear Them Thunders Rolling
TTITLE4=River of Jordan
TTITLE5=Somebody Touched Me
TTITLE6=Heaven
TTITLE7=When My Time Comes To Go
TTITLE8=The Devil Just Can't Knock Me Off My Knees
TTITLE9=Softly and Tenderly
TTITLE10=New Minister
TTITLE11=Church Inheiritance
TTITLE12=Man in a Hurry
TTITLE13=Choirboy Barney
EXTD=
EXTT0=
EXTT1=
EXTT2=
EXTT3=
EXTT4=
EXTT5=
EXTT6=
EXTT7=
EXTT8=
EXTT9=
EXTT10=
EXTT11=
EXTT12=
EXTT13=
PLAYORDER=
